<?xml version="1.0" encoding="utf-8"?>
<!-- Generator: Adobe Illustrator 23.0.6, SVG Export Plug-In . SVG Version: 6.00 Build 0)  -->
<svg version="1.1" xmlns="http://www.w3.org/2000/svg" xmlns:xlink="http://www.w3.org/1999/xlink" x="0px" y="0px"
	 viewBox="0 0 900 900" style="enable-background:new 0 0 900 900;" xml:space="preserve">
<style type="text/css">
	.st0{display:none;}
	.st1{fill:#FF5345;}
	.st2{display:inline;fill:#FFFFFF;}
	.st3{display:inline;fill:#FF5345;}
	.st4{fill:#FFFFFF;}
</style>
<g id="Layer_1" class="st0">
	
		<image style="display:inline;overflow:visible;" width="2732" height="2048" xlink:href="../../../../../../Desktop/ciaodao_extra/Ciao,_DAO!.jpg"  transform="matrix(0.5455 0 0 0.5455 -295.0909 -108.5455)">
	</image>
</g>
<g id="Layer_3">
	<rect class="st1" width="900" height="900"/>
</g>
<g id="Layer_2_copy" class="st0">
	<path class="st2" d="M60.5,336.7c-43.5,0-78.7,35.2-78.7,78.7c0,27.7,14.3,52,36,66.1c0,0,0,0,0,0c1.4,2.5-8.2-1.7-8.2-1.7
		s4,42.2,4.4,50.3c0,0,24.5-21.2,33.6-34c0.7-1,1.3-1.9,1.9-2.8c3.6,0.5,7.3,0.8,11,0.8c43.5,0,78.7-35.2,78.7-78.7
		S104,336.7,60.5,336.7z"/>
	<path class="st3" d="M29.9,418.9c4.4-20.8,10.9-34.9,18.2-41.7s15.6-10.7,23.5-10.7s20.7,2.8,20.7,13.3s0,17.2,0,17.2
		s-2.1-0.2-2.8,0.9s-1.4,4.4-1.4,4.4s-1.6,0.5-3.3,0.5c-1.6,0-1.5-0.3-1.5-1c0-0.7,0-0.7,0-0.7s-0.9,0.1-1.3,0.5
		c-0.3,0.3-0.6,1.9-1.6,2c-1,0.1-2.4,0.2-2.4,0.2l-0.6-0.7c0,0,0.2-2.2,1.5-9.7c1.3-7.5,2.4-8.7,2.4-11.8s-3.3-4.5-7.7-4.5
		s-11.9,3.3-16.7,16s-10,28.7-11.2,40.5c-1.2,11.9-0.8,15.5,2.8,16.4c13.6,3.6,22.4-1.4,23.2-3.3c0.8-1.9,0.6-9.2,1-12.2
		s2.7-9.7,4.4-10.7c1.7-1,4.1-1.3,4.5-1s0.6,0.8,1,0.8s2-0.7,2-0.7s1.2-0.1,1.2,0.2s0.6,0.7,0.6,1.4c0,0.7-1,0.3,0,0.7
		c1,0.3,1.5,0.5,2,0.3c0.5-0.1,1.2-0.1,1.2-0.1s-0.8,3.7-2,6.5s-7,15.1-7.6,16.8c-0.6,1.6-7,12.8-18.2,12.8c-11.2,0-20.3-1.3-24.7-4
		c-4.4-2.7-7-5.1-8.9-15.8C27.9,438.4,29.3,421.7,29.9,418.9z"/>
	<path class="st2" d="M179.3,357c-0.6,2.2-3.8,12.8-3.8,12.8s-2.4,5.4-1.9,7.2c0.5,1.7,2.8,3.8,2.8,3.8l1,1.6c0,0,1.9,1,3,0
		c1-1,3.1-0.9,3.7-0.9c0.5,0,3.1-1.6,4.2-4.7c1-3.1,3.8-7.3,4-9.3c0.2-1.9-0.9-4.4-1.7-6.1s0.2-3.1,0.3-4.4s-1.6-3.5-1.6-3.5
		s-3.1,0.3-4.2,1.7c-1,1.4-1.5-1.6-2.2-1.7C182.1,353.4,180,354.4,179.3,357z"/>
	<path class="st2" d="M305.5,421c-1.3-0.7-1.3-0.7-1.3-0.7s-3.5-0.7-5.1-0.9c-1.6-0.2-2.8-0.9-2.8-0.9s0.9-5.6,1.4-7.3
		c0.5-1.7,1.6-7.3,1.4-9.1c-0.2-1.7-4.7-8-6.3-11.4s-7.8-10.7-13.1-10.7c-7.5,0-15.5,1.6-20.6,8.4c-5.1,6.8-13.1,26.2-14.5,33.6
		c-1.4,7.3-1.4,16.8,0,19.6c-0.7,3.1-1.7,5.9-5.2,6.1s-9.4-0.9-9.1-10.7c0.3-9.8,8-31.3,8.7-33c0.7-1.7,4.2-9.6,4.5-12.4
		c0.3-2.8-0.3-5.2-2.1-6.5c-1.7-1.2-6-3.9-6.2-3.2c-0.2,0.7-0.9,1.2-0.7,2.3c0.2,1,0.4,0.1-0.3,1.1c-0.7,1-0.9,2.6-0.9,2.6
		s-3-5.3-11.6-6.5c-10.6-1.4-21.3,13.1-28.4,32.3c-2.8,7.6-5.8,24.9-4.9,31.4c0.2,1.4-2.9,5-5.5,6c-2.6,1-4.5,3.1-7.3,1.2
		c-2.8-1.9-5.2-7.5-4.7-11.4c0.5-3.8,0.5-9.1,2.1-10.7c1.6-1.6,3-4.7,4-6.6c1-1.9,2.3-6.6,3.1-11.4s1.6-11,0.9-13.1
		c-0.7-2.1-2.6-4.2-5.2-5.1c-2.6-0.9-4.5-2.1-5.9-2.3c-1.4-0.2-4-0.7-5.6,5.4c-0.6,2.5-4.7,18-4.4,20.6c0.3,2.6-0.3,8.6-1,12.8
		s-0.9,13.5,2.7,19.2c2.4,3.9,9.6,8.9,17,8.9c4.4,0,9.6-4.5,10.7-6.6c4.2,3.5,9.1,4.5,13.8,4.5c10.7,0,20.8-9.8,20.8-9.8
		c2.1,4.7,7.3,9,14.7,9c7.3,0,9-9.7,9-9.7c4.4,5.8,8.4,10.7,18,10.7s18-7,19.6-9.8c1.6-2.8,9.3-22.9,9.3-22.9s9.6,0.2,10.5-0.5
		s0-1.9,0-1.9S306.8,421.7,305.5,421z M226.8,410.5c-1.7,6.6-4.4,26.6-4.9,28.1c-0.5,1.6-3.5,5.6-10.1,5.6c-6.6,0-6.8-3.7-6.5-7.7
		c0.3-4,4.5-19.7,8.2-31.1c3.7-11.4,8.6-16.3,12.1-15.6c3.1,0.7,5.4,3.1,5.8,4.7C231.7,396.2,228.6,403.9,226.8,410.5z M277,395.7
		c0,0,1.4-1.7,5.9-1.7c4.5,0,6.3,4,6.3,8.6c0,4.5-1.2,11.4-1.2,11.4s-4.2-3.1-4.9-4.4C282.4,408.2,275.4,402.3,277,395.7z
		 M285.4,424c-4,8.7-7.2,26-20.3,26c-9.3,0-8.9-16.6-6.9-23.6c1.9-6.8,8.1-19.5,10-21.7c0.2,0.8,4.2,8,7.1,10.7
		c5.8,5.3,14.8,7.6,14.8,7.6C290.5,423.4,285.4,424,285.4,424z"/>
</g>
<g id="Layer_2">
	<g>
		<path class="st4" d="M378.6,568.8c-49.1-8.2-124.5,10.3-124.5,13.5c0,0.7,1.4,1.5,1.4,2.4c0,0,46.5-3.7,62.6-2.6
			c23.1,1.6,70,7.2,70,1.5C388,577.1,382,569.3,378.6,568.8z"/>
		<path class="st4" d="M497.8,342.2c1.7-3.3,8.5-18.9,9.4-21c3.3-8.2-10.4-15.9-15.7-5.8c-1.9,3.6-4.8,9.2-5.3,11.5
			c-0.5,2.3,2.1,4.4,0.4,9.1C483,345.7,495.2,347.2,497.8,342.2z"/>
		<path class="st4" d="M651.2,566.8c-1,3-2.5,7.6-2.5,9.4c-0.1,1.8,2.2,3,1.5,6.8c-1.4,7.7,8.2,7.2,9.5,3.1c0.9-2.7,4-15.4,4.4-17.1
			C665.6,562.5,654,558.4,651.2,566.8z"/>
		<path class="st4" d="M657.5,403.2c0,0,2.2-0.2,0.5-1.2c-0.3-0.2-0.5-0.3-0.7-0.4c2.5,0,5.4-0.5,5.4-0.5l-8.6-0.4
			c-6.9-0.4-8.5-2-8.5-2s4.1-16.2,3-24.5c-0.3-2.4-5.6-8.8-7.7-13.3s-9.6-12.6-16.9-12.6c-33,0-48.7,42.6-48.7,81.7
			c-1,4.3-4.6,10.1-9.3,10.3c-4.8,0.2-10.6-3.2-10.2-16.5c0.5-13.3,10.9-42.5,11.9-44.9c1-2.4,5.7-13.1,6.2-16.9
			c0.5-3.8,0.6-6.2-1.8-7.9c-2.4-1.7-7.2-5.6-8.5-5.1c-1.4,0.5-3.5,8-3.5,8s-4.1-7.2-15.8-8.8c-14.5-1.9-44.2,18.4-44.2,80.5
			c0,2-9,11.9-19.2,11.3c-16.6-1-7.3-32.1-6.2-35.1c0,0,5.1,2.7,5.6,1.5c1.1-2.8,11.5-31.7,10.9-34.6c-0.6-3,0-6.1-3.4-7.8
			c-3.4-1.7-5.8-3.6-7.6-4.2c-11.3-3.5-18.4,30.3-19.1,32.6c-1.6,5.5-16.7,56.5,18.5,56.5c11.1,0,20.1-7.7,21.6-10.6
			c0,6.4,11.4,12.3,17.8,12.3c14.5,0,28.3-13.3,28.3-13.3c2.9,6.4,7.3,12.3,17.4,12.3c10.8,0,15-13.2,15-13.2
			c5.9,7.8,11.4,14.5,24.5,14.5c27.6,0,39.2-44.4,39.2-44.4s13.1,0.2,14.3-0.7C658.7,404.9,657.5,403.2,657.5,403.2z M530.7,433.6
			c-11.4,0-12.9-8.3-12.9-13.8c0-17.2,8.2-59.9,30.1-59.9c4.4,0,9.1,5.6,8.1,7.5C551.9,375.1,542.5,433.6,530.7,433.6z M619.3,367.6
			c0,0,1.9-2.4,8.1-2.4c6.2,0,8.6,5.5,8.6,11.6c0,6.2-1.7,15.4-1.7,15.4s-5.7-4.3-6.7-5.9C626.6,384.7,617.1,376.6,619.3,367.6z
			 M630.7,406c-5.5,11.9-11.8,33-27.6,33c-19.5,0-8.1-59.2,4.2-59.2c0.2,1,5.7,10.8,9.6,14.5c7.8,7.2,20.1,10.3,20.1,10.3
			C637.7,405.3,630.7,406,630.7,406z"/>
		<path class="st4" d="M563.1,546.9c-0.5-0.3-1.3-1.9-1.3-1.9s0-0.6,0-1.4s-0.3-1.6-0.3-1.6s-6.2-1.1-7.1-1.3
			c-1-0.2-0.6-11.7-0.3-15.2c0.3-3.5,3-43.4,3-44.2s0.3-3.3,0.3-3.8s0.2-1.7,0.2-2.2c0-0.5,0-1.4-0.5-1.9c-0.5-0.5,1-0.2-0.5-0.5
			c-1.4-0.3-2.7,0-2.7,0s-0.6,0.3-0.6,0.8c0,0.5-0.8,1.4-1.3,1.7c-0.5,0.3-0.5,0.3-0.5,0.3l-1.1-1.4l-0.5-1.6c0,0-0.3-1.1-1.3-1.1
			c-1,0-1.6,0-1.6,0s-1.1,0.2-1.6,0c-0.5-0.2,0.5-0.2-0.5-0.2c-1,0-41.5,61-41.5,72.4c-1.9,0-15.5,1.4-17.3,2.9
			c9-14,14.9-29.7,14.9-44.3c0-34.5-25.5-30.7-31.2-30.7c-14.4,0-36,9.8-40.9,12.5c0,0-2.4,1.6-2.8,2.1c-0.4,0.5,0,1.2,0,1.2
			l0.5,0.8c0,0,0.1,0.7,1,0.6c0.8-0.1,2.5,0.5,2.5,0.5s1.5-0.7,2.9-1.1c1.3-0.4,3.1-1.2,3.9-1.5c0.8-0.4,1.4,0.5,1.1,1.1
			c-0.4,0.6-26,58.8-26,88c0,2.9-0.8,6.9-0.8,6.9v1.4l1.2,0.5l0.8-0.4l1-0.8c0,0,1.1,0.5,2.4,0.7c1.3,0.2,1,4.6,12.5,4.6
			c18.2,0,41.8-18.4,56.9-41.7c0,0,0,0,0,0c0,1.6,2.6,6.7,4.4,6.7s7.9,0.6,7.9,0.6s-5.7,16.9-5.7,22.6c0,4.8,4.3,10.9,8.6,10.9
			s5.9-1.7,7-1.7c1.1,0,1-5.2,1-8.1c0-2.9,5.5-22,5.5-22s25-6,25-3.2c0,2.9-1.1,15.5-1.1,20.9s0.3,13.2,4.8,16.9
			c0.7,0.5,1.9,2.4,2.3,2.7c0.7,3,2.5,5,7.6,5c1.9,0,3-2.4,3-4.3c0-1.9-3.3-39.5-3.3-42.1c0,0,7.3,1.1,9,1.1c1.7,0,4.3,0.3,4-1.1
			C565.7,550.9,563.6,547.2,563.1,546.9z M434.5,575.6c-2.7,0-2.2,0-2.2-2.2c0-12.6,22.2-82,22.2-83.7c0-1.8,0.9-3.2,1.7-3.2
			c1.5,0,10.7-2,14.6-2c5.7,0,12.5,14.6,12.5,25.5C483.3,539,455,575.6,434.5,575.6z M539.5,526.5c0,5.9,0,13.3,0,13.3
			c-10.4,0-19.1,2.1-20.3,2.1c0-3.3,22.6-43.7,24.2-43.7C543.5,498.2,539.5,520.6,539.5,526.5z"/>
		<path class="st4" d="M639.4,475.5c-5.7-4.5-47.8-10.8-59.1,29.8c-9.2,33.2-16.3,85.9,16.2,85c20.4-0.5,28.9-12,35-26.2
			c4.8-11.1,17.5-62.4,11.5-71.2S642.2,477.7,639.4,475.5z M630,533.9c-5.1,30.9-15,41.6-28.5,42.2c-10.2,0.5-12.9-18.8-5-55.8
			c8.2-38.5,27.2-29.4,30.6-28.8c1.7,0.3,2-0.5,2.2,1.2c0.2,1.6,2,3.6,3.2,4.5S633.4,513.2,630,533.9z"/>
		<path class="st4" d="M653.1,447c0,1.9,6.5-0.3,6.5,1.8c0,9.6-8.6,16.8-7.8,16.8c19.3,0,23.4-28.8,24.1-32.1s-2.5-6.3-9.1-6.3
			C653.6,427.3,653.1,443,653.1,447z"/>
		<path class="st4" d="M676.4,479.7c-3-0.3-9,5.1-9.4,9.1c-0.3,3.9-10.3,58.9-5.4,59.3c4.8,0.4,25-54.4,25.4-59.6
			C687.5,483.3,681.2,480.1,676.4,479.7z"/>
		<path class="st4" d="M325,288.4c-59.1,0-107,47.9-107,107c0,32.4,14.4,61.4,37.2,81l0.6,6.5l0,0c0,0,0,0.4,0.1,1.1l1.8,19.4h0
			c1.6,17.6,3.7,41.2,4.1,47.9c0,0,33.3-28.8,45.6-46.2c1-1.4,1.8-2.6,2.6-3.8c4.9,0.7,9.9,1.1,14.9,1.1c59.1,0,107-47.9,107-107
			C432,336.2,384.1,288.4,325,288.4z M366,369c-2,11.9-13.5,11.7-18,9.7c-1.7-0.8-2.4-2.3-1.1-12.2c1.3-9.9,2.9-11.7,2.7-15.7
			s-4.9-5.8-11.2-5.4c-6.3,0.3-15.2,3.7-21.1,20.8c-5.9,17-12.3,38.4-13.1,54.1c-0.9,15.7,1.2,18.9,6.4,20
			c16.7,3.6,25.6-1.9,26.6-4.4c1-2.5,3.3-13.5,3.7-17.6c0.5-4-0.2-15.5,9.1-15.1c2.5,0.1,11.3,0.1,11.5,4.7c0.1,1.8-0.9,5-2.4,8.7
			c-1.5,3.8-6,21.6-6.7,23.8c-0.7,2.2-11.8,18.8-27.6,19.6c-15.8,0.8-23.1-1.9-29.5-5.1c-6.4-3.2-11.7-8.8-15.1-22.8
			c-1-4.4-0.2-26.4,0.5-30.2c4.9-27.7,13.2-46.7,22.9-56.1c9.8-9.4,21.3-15.2,32.5-15.7c11.2-0.6,29.8,0.2,30.5,14
			C367.3,358,367,363.3,366,369z"/>
	</g>
</g>
</svg>
