<svg xmlns="http://www.w3.org/2000/svg" xmlns:xlink="http://www.w3.org/1999/xlink" version="1.1" x="0px" y="0px" viewBox="0 0 100 125" enable-background="new 0 0 100 100" xml:space="preserve"><path d="M10.966,65.126c1.706-9.279,8.698-20.394,18.703-29.733c8.006-7.473,16.962-12.944,25.218-15.407  c8.019-2.391,14.356-1.647,17.849,2.093c6.426,6.885,1.538,22.834-11.37,37.101l1.482,1.342  c13.835-15.29,18.608-32.031,11.351-39.807c-4.037-4.324-11.096-5.263-19.883-2.645c-8.546,2.549-17.784,8.182-26.011,15.861  C17.996,43.552,10.779,55.078,8.999,64.765L10.966,65.126z"/><path d="M72.179,67.263C55.826,82.526,36.507,88.499,29.112,80.577c-7.394-7.922-0.105-26.785,16.246-42.048l-1.364-1.462  C26.836,53.083,19.504,73.213,27.65,81.942c2.55,2.732,6.318,4.027,10.82,4.027c9.879,0,23.286-6.242,35.073-17.244  c9.362-8.74,16.175-19.008,18.69-28.172l-1.928-0.529C87.886,48.841,81.278,58.769,72.179,67.263z"/><polygon points="6.317,22.391 13.074,18.838 19.831,22.391 18.541,14.866 24.007,9.538 16.453,8.441 13.074,1.597 9.696,8.441   2.143,9.538 7.608,14.866 "/><polygon points="12.418,77.983 8.808,84.583 2.208,88.193 8.808,91.804 12.418,98.403 16.029,91.804 22.629,88.193 16.029,84.583   "/><polygon points="87.646,22.42 91.257,15.819 97.857,12.209 91.257,8.599 87.646,1.999 84.036,8.599 77.435,12.209 84.036,15.819 "/><path d="M43.283,13.482c2.93,0,5.313-2.384,5.313-5.313s-2.384-5.313-5.313-5.313s-5.314,2.384-5.314,5.313  S40.354,13.482,43.283,13.482z"/><path d="M79.519,79.067c-2.93,0-5.313,2.384-5.313,5.313c0,2.931,2.384,5.314,5.313,5.314s5.313-2.384,5.313-5.314  C84.832,81.451,82.448,79.067,79.519,79.067z"/><text x="0" y="115" fill="#000000" font-size="5px" font-weight="bold" font-family="'Helvetica Neue', Helvetica, Arial-Unicode, Arial, Sans-serif">Created by Srinivas Agra</text><text x="0" y="120" fill="#000000" font-size="5px" font-weight="bold" font-family="'Helvetica Neue', Helvetica, Arial-Unicode, Arial, Sans-serif">from the Noun Project</text></svg>