<?xml version="1.0" encoding="utf-8"?>
<!-- Generator: Adobe Illustrator 23.0.6, SVG Export Plug-In . SVG Version: 6.00 Build 0)  -->
<svg version="1.1" xmlns="http://www.w3.org/2000/svg" xmlns:xlink="http://www.w3.org/1999/xlink" x="0px" y="0px"
	 viewBox="0 0 900 900" style="enable-background:new 0 0 900 900;" xml:space="preserve">
<style type="text/css">
	.st0{display:none;}
	.st1{display:inline;fill:#FFFFFF;}
	.st2{display:inline;fill:#FF5345;}
	.st3{fill:#FF5345;}
</style>
<g id="Layer_1" class="st0">
	
		<image style="display:inline;overflow:visible;" width="2732" height="2048" xlink:href="../../../../../../Desktop/ciaodao_extra/Ciao,_DAO!.jpg"  transform="matrix(0.5455 0 0 0.5455 -295.0909 -108.5455)">
	</image>
</g>
<g id="Layer_3">
</g>
<g id="Layer_2_copy" class="st0">
	<path class="st1" d="M60.5,336.7c-43.5,0-78.7,35.2-78.7,78.7c0,27.7,14.3,52,36,66.1c0,0,0,0,0,0c1.4,2.5-8.2-1.7-8.2-1.7
		s4,42.2,4.4,50.3c0,0,24.5-21.2,33.6-34c0.7-1,1.3-1.9,1.9-2.8c3.6,0.5,7.3,0.8,11,0.8c43.5,0,78.7-35.2,78.7-78.7
		S104,336.7,60.5,336.7z"/>
	<path class="st2" d="M29.9,418.9c4.4-20.8,10.9-34.9,18.2-41.7s15.6-10.7,23.5-10.7s20.7,2.8,20.7,13.3s0,17.2,0,17.2
		s-2.1-0.2-2.8,0.9s-1.4,4.4-1.4,4.4s-1.6,0.5-3.3,0.5c-1.6,0-1.5-0.3-1.5-1c0-0.7,0-0.7,0-0.7s-0.9,0.1-1.3,0.5
		c-0.3,0.3-0.6,1.9-1.6,2c-1,0.1-2.4,0.2-2.4,0.2l-0.6-0.7c0,0,0.2-2.2,1.5-9.7c1.3-7.5,2.4-8.7,2.4-11.8s-3.3-4.5-7.7-4.5
		s-11.9,3.3-16.7,16s-10,28.7-11.2,40.5c-1.2,11.9-0.8,15.5,2.8,16.4c13.6,3.6,22.4-1.4,23.2-3.3c0.8-1.9,0.6-9.2,1-12.2
		s2.7-9.7,4.4-10.7c1.7-1,4.1-1.3,4.5-1s0.6,0.8,1,0.8s2-0.7,2-0.7s1.2-0.1,1.2,0.2s0.6,0.7,0.6,1.4c0,0.7-1,0.3,0,0.7
		c1,0.3,1.5,0.5,2,0.3c0.5-0.1,1.2-0.1,1.2-0.1s-0.8,3.7-2,6.5s-7,15.1-7.6,16.8c-0.6,1.6-7,12.8-18.2,12.8c-11.2,0-20.3-1.3-24.7-4
		c-4.4-2.7-7-5.1-8.9-15.8C27.9,438.4,29.3,421.7,29.9,418.9z"/>
	<path class="st1" d="M179.3,357c-0.6,2.2-3.8,12.8-3.8,12.8s-2.4,5.4-1.9,7.2c0.5,1.7,2.8,3.8,2.8,3.8l1,1.6c0,0,1.9,1,3,0
		c1-1,3.1-0.9,3.7-0.9c0.5,0,3.1-1.6,4.2-4.7c1-3.1,3.8-7.3,4-9.3c0.2-1.9-0.9-4.4-1.7-6.1s0.2-3.1,0.3-4.4s-1.6-3.5-1.6-3.5
		s-3.1,0.3-4.2,1.7c-1,1.4-1.5-1.6-2.2-1.7C182.1,353.4,180,354.4,179.3,357z"/>
	<path class="st1" d="M305.5,421c-1.3-0.7-1.3-0.7-1.3-0.7s-3.5-0.7-5.1-0.9c-1.6-0.2-2.8-0.9-2.8-0.9s0.9-5.6,1.4-7.3
		c0.5-1.7,1.6-7.3,1.4-9.1c-0.2-1.7-4.7-8-6.3-11.4s-7.8-10.7-13.1-10.7c-7.5,0-15.5,1.6-20.6,8.4c-5.1,6.8-13.1,26.2-14.5,33.6
		c-1.4,7.3-1.4,16.8,0,19.6c-0.7,3.1-1.7,5.9-5.2,6.1s-9.4-0.9-9.1-10.7c0.3-9.8,8-31.3,8.7-33c0.7-1.7,4.2-9.6,4.5-12.4
		c0.3-2.8-0.3-5.2-2.1-6.5c-1.7-1.2-6-3.9-6.2-3.2c-0.2,0.7-0.9,1.2-0.7,2.3c0.2,1,0.4,0.1-0.3,1.1c-0.7,1-0.9,2.6-0.9,2.6
		s-3-5.3-11.6-6.5c-10.6-1.4-21.3,13.1-28.4,32.3c-2.8,7.6-5.8,24.9-4.9,31.4c0.2,1.4-2.9,5-5.5,6c-2.6,1-4.5,3.1-7.3,1.2
		c-2.8-1.9-5.2-7.5-4.7-11.4c0.5-3.8,0.5-9.1,2.1-10.7c1.6-1.6,3-4.7,4-6.6c1-1.9,2.3-6.6,3.1-11.4s1.6-11,0.9-13.1
		c-0.7-2.1-2.6-4.2-5.2-5.1c-2.6-0.9-4.5-2.1-5.9-2.3c-1.4-0.2-4-0.7-5.6,5.4c-0.6,2.5-4.7,18-4.4,20.6c0.3,2.6-0.3,8.6-1,12.8
		s-0.9,13.5,2.7,19.2c2.4,3.9,9.6,8.9,17,8.9c4.4,0,9.6-4.5,10.7-6.6c4.2,3.5,9.1,4.5,13.8,4.5c10.7,0,20.8-9.8,20.8-9.8
		c2.1,4.7,7.3,9,14.7,9c7.3,0,9-9.7,9-9.7c4.4,5.8,8.4,10.7,18,10.7s18-7,19.6-9.8c1.6-2.8,9.3-22.9,9.3-22.9s9.6,0.2,10.5-0.5
		s0-1.9,0-1.9S306.8,421.7,305.5,421z M226.8,410.5c-1.7,6.6-4.4,26.6-4.9,28.1c-0.5,1.6-3.5,5.6-10.1,5.6c-6.6,0-6.8-3.7-6.5-7.7
		c0.3-4,4.5-19.7,8.2-31.1c3.7-11.4,8.6-16.3,12.1-15.6c3.1,0.7,5.4,3.1,5.8,4.7C231.7,396.2,228.6,403.9,226.8,410.5z M277,395.7
		c0,0,1.4-1.7,5.9-1.7c4.5,0,6.3,4,6.3,8.6c0,4.5-1.2,11.4-1.2,11.4s-4.2-3.1-4.9-4.4C282.4,408.2,275.4,402.3,277,395.7z
		 M285.4,424c-4,8.7-7.2,26-20.3,26c-9.3,0-8.9-16.6-6.9-23.6c1.9-6.8,8.1-19.5,10-21.7c0.2,0.8,4.2,8,7.1,10.7
		c5.8,5.3,14.8,7.6,14.8,7.6C290.5,423.4,285.4,424,285.4,424z"/>
</g>
<g id="Layer_2">
	<g>
		<g>
			<path class="st3" d="M544.8,681.4c-86.3-14.3-219,18.1-218.9,23.7c0,1.3,2.4,2.6,2.4,4.1c0,0,81.8-6.5,110.1-4.5
				c40.6,2.9,123.2,12.7,123,2.7C561.3,696,550.7,682.4,544.8,681.4z"/>
			<path class="st3" d="M450.6,188.2c-103.9,0-188.1,84.2-188.1,188.1c0,57,25.4,108,65.5,142.5l1.1,11.4l0,0c0,0,0.1,0.7,0.2,1.9
				l3.2,34.2h0c2.8,31,6.6,72.5,7.2,84.2c0,0,58.5-50.7,80.2-81.3c1.7-2.4,3.2-4.6,4.5-6.7c8.6,1.2,17.4,1.9,26.3,1.9
				c103.9,0,188.1-84.2,188.1-188.1S554.5,188.2,450.6,188.2z M522.7,330.1c-3.5,20.9-23.7,20.6-31.6,17.1c-3-1.3-4.3-4.1-2-21.5
				c2.3-17.4,5.1-20.5,4.7-27.5s-8.6-10.1-19.6-9.6c-11,0.5-26.8,6.6-37.2,36.5c-10.4,30-21.6,67.5-23.1,95.2
				c-1.5,27.6,2.2,33.3,11.2,35.2c29.4,6.3,45.1-3.3,46.9-7.7c1.8-4.4,5.8-23.8,6.6-30.9c0.8-7.1-0.4-27.3,15.9-26.5
				c4.3,0.2,19.8,0.2,20.2,8.3c0.2,3.1-1.6,8.7-4.2,15.3c-2.6,6.6-10.5,38-11.8,41.8c-1.3,3.8-20.7,33.1-48.5,34.4
				c-27.8,1.4-40.7-3.3-52-8.9c-11.3-5.7-20.7-15.5-26.5-40.1c-1.8-7.7-0.3-46.4,0.9-53c8.6-48.7,23.2-82.2,40.3-98.7
				c17.2-16.5,37.5-26.7,57.2-27.7c19.7-1,52.4,0.3,53.6,24.6C525,310.7,524.4,320,522.7,330.1z"/>
		</g>
	</g>
</g>
</svg>
